<?xml version="1.0" standalone="no"?>
<!DOCTYPE svg PUBLIC "-//W3C//DTD SVG 1.1//EN" "http://www.w3.org/Graphics/SVG/1.1/DTD/svg11.dtd">
<svg width="100%" height="100%" viewBox="0 0 5000 1700" version="1.1" xmlns="http://www.w3.org/2000/svg" xmlns:xlink="http://www.w3.org/1999/xlink" xml:space="preserve" style="fill-rule:evenodd;clip-rule:evenodd;stroke-linejoin:round;stroke-miterlimit:1.41421;">
    <g id="Layer2" transform="matrix(1,0,0,1.41887,-4.74383,-573.927)">
        <g transform="matrix(1.22819,0,0,1.0135,-126.143,-13.1673)">
            <path d="M702.958,1007.23C702.958,989.539 686.138,975.173 665.42,975.173L590.343,975.173C569.625,975.173 552.805,989.539 552.805,1007.23L552.805,1353.71C552.805,1371.41 569.625,1385.77 590.343,1385.77L665.42,1385.77C686.138,1385.77 702.958,1371.41 702.958,1353.71L702.958,1007.23Z" style="fill:white;"/>
        </g>
        <g transform="matrix(1,0,0,0.704787,4.74383,404.496)">
            <ellipse cx="637.386" cy="1404.03" rx="61.672" ry="18.083" style="fill:white;"/>
        </g>
        <g transform="matrix(0.824487,0,0,1.09251,123.419,2.53996)">
            <path d="M1049.62,1065.33C1049.62,1049.53 1025.51,1036.7 995.807,1036.7L729.976,1036.7C700.275,1036.7 676.162,1049.53 676.162,1065.33L676.162,1122.57C676.162,1138.37 700.275,1151.19 729.976,1151.19L995.807,1151.19C1025.51,1151.19 1049.62,1138.37 1049.62,1122.57L1049.62,1065.33Z" style="fill:white;"/>
        </g>
        <g transform="matrix(1.29952,0,0,0.779502,-240.975,321.388)">
            <ellipse cx="745.373" cy="1056.24" rx="75.008" ry="56.107" style="fill:white;"/>
        </g>
        <g transform="matrix(1,0,0,0.704787,4.74383,404.496)">
            <ellipse cx="714.72" cy="986.339" rx="41.448" ry="51.292" style="fill:white;"/>
        </g>
        <g transform="matrix(1,0,0,0.704787,4.74383,404.496)">
            <ellipse cx="723.886" cy="1022.5" rx="7.141" ry="14.599" style="fill:white;"/>
        </g>
        <g transform="matrix(1,0,0,0.704787,4.74383,404.496)">
            <path d="M1144.3,741.719C1144.3,722.839 1128.97,707.511 1110.09,707.511L1041.67,707.511C1022.79,707.511 1007.47,722.839 1007.47,741.719L1007.47,1014.61C1007.47,1033.49 1022.79,1048.82 1041.67,1048.82L1110.09,1048.82C1128.97,1048.82 1144.3,1033.49 1144.3,1014.61L1144.3,741.719Z" style="fill:white;"/>
        </g>
        <g transform="matrix(1.63078,0,0,0.704787,-737.493,404.496)">
            <path d="M1176.7,789.951C1176.7,779.578 1171.54,771.156 1165.18,771.156L1142.13,771.156C1135.77,771.156 1130.61,779.578 1130.61,789.951L1130.61,1005.31C1130.61,1015.68 1135.77,1024.1 1142.13,1024.1L1165.18,1024.1C1171.54,1024.1 1176.7,1015.68 1176.7,1005.31L1176.7,789.951Z" style="fill:white;"/>
        </g>
        <g transform="matrix(1,0,0,0.704787,4.74383,404.496)">
            <path d="M1153.42,755.642C1153.42,750.139 1148.95,745.672 1143.45,745.672L1118.98,745.672C1113.48,745.672 1109.01,750.139 1109.01,755.642L1109.01,775.582C1109.01,781.085 1113.48,785.552 1118.98,785.552L1143.45,785.552C1148.95,785.552 1153.42,781.085 1153.42,775.582L1153.42,755.642Z" style="fill:white;"/>
        </g>
        <g transform="matrix(1,0,0,0.704787,4.74383,404.496)">
            <path d="M1046.1,676.43C1046.1,659.152 1032.07,645.125 1014.8,645.125L690.295,645.125C673.018,645.125 658.991,659.152 658.991,676.43L658.991,739.039C658.991,756.317 673.018,770.344 690.295,770.344L1014.8,770.344C1032.07,770.344 1046.1,756.317 1046.1,739.039L1046.1,676.43Z" style="fill:white;"/>
        </g>
        <g transform="matrix(1,0,0,0.704787,4.74383,404.496)">
            <path d="M1013.3,1046.38C1013.3,1039.81 1007.97,1034.48 1001.4,1034.48L977.592,1034.48C971.022,1034.48 965.688,1039.81 965.688,1046.38L965.688,1188.08C965.688,1194.65 971.022,1199.99 977.592,1199.99L1001.4,1199.99C1007.97,1199.99 1013.3,1194.65 1013.3,1188.08L1013.3,1046.38Z" style="fill:white;"/>
        </g>
        <g transform="matrix(1,0,0,0.704787,4.74383,404.496)">
            <path d="M1124.53,1024.81C1124.53,1016.31 1117.63,1009.4 1109.12,1009.4L1078.29,1009.4C1069.79,1009.4 1062.88,1016.31 1062.88,1024.81L1062.88,1107.65C1062.88,1116.16 1069.79,1123.07 1078.29,1123.07L1109.12,1123.07C1117.63,1123.07 1124.53,1116.16 1124.53,1107.65L1124.53,1024.81Z" style="fill:white;"/>
        </g>
        <g transform="matrix(1,0,0,0.704787,4.74383,403.087)">
            <ellipse cx="1010.67" cy="1030.9" rx="48.182" ry="57.299" style="fill:white;"/>
        </g>
        <g transform="matrix(1,0,0,0.704787,3.74383,401.677)">
            <ellipse cx="955.623" cy="1038.19" rx="26.414" ry="22.729" style="fill:white;"/>
        </g>
        <g transform="matrix(1,0,0,0.704787,4.74383,404.496)">
            <ellipse cx="1043.43" cy="1124.58" rx="33.349" ry="37.995" style="fill:white;"/>
        </g>
        <g transform="matrix(1,0,0,0.704787,4.74383,404.496)">
            <ellipse cx="1019.75" cy="1114.41" rx="65.219" ry="69.346" style="fill:white;"/>
        </g>
        <g transform="matrix(1,0,0,0.704787,4.74383,404.496)">
            <ellipse cx="1078.85" cy="1076.91" rx="37.125" ry="58.953" style="fill:white;"/>
        </g>
        <g transform="matrix(1,0,0,0.704787,4.74383,404.496)">
            <ellipse cx="1125.06" cy="1049.24" rx="33.583" ry="43.951" style="fill:white;"/>
        </g>
        <g transform="matrix(1,0,0,0.704787,4.74383,404.496)">
            <ellipse cx="1173.94" cy="900.5" rx="9.724" ry="61.479" style="fill:white;"/>
        </g>
        <g transform="matrix(1,0,0,0.704787,4.74383,404.496)">
            <ellipse cx="1032.13" cy="669.354" rx="29.544" ry="40.026" style="fill:white;"/>
        </g>
        <g transform="matrix(1,0,0,0.704787,4.74383,404.496)">
            <ellipse cx="1060.96" cy="688.344" rx="40.539" ry="33.172" style="fill:white;"/>
        </g>
        <g transform="matrix(1,0,0,0.704787,4.74383,404.496)">
            <ellipse cx="1096.93" cy="716.279" rx="31.401" ry="23.831" style="fill:white;"/>
        </g>
        <g transform="matrix(1,0,0,0.704787,4.74383,404.496)">
            <ellipse cx="1003.25" cy="814.935" rx="24.323" ry="44.82" style="fill:white;"/>
        </g>
        <g transform="matrix(1,0,0,0.704787,4.74383,404.496)">
            <ellipse cx="955.959" cy="773.456" rx="50.302" ry="18.143" style="fill:white;"/>
        </g>
        <g transform="matrix(1,0,0,0.704787,4.74383,404.496)">
            <ellipse cx="979.587" cy="794.914" rx="26.674" ry="16.195" style="fill:white;"/>
        </g>
        <g transform="matrix(1,0,0,0.704787,4.74383,404.496)">
            <ellipse cx="682.527" cy="819.761" rx="69.083" ry="68.49" style="fill:white;"/>
        </g>
        <g transform="matrix(1,0,0,0.704787,4.74383,404.496)">
            <ellipse cx="746.035" cy="778.206" rx="65.367" ry="31.612" style="fill:white;"/>
        </g>
        <g transform="matrix(1,0,0,0.704787,4.74383,404.496)">
            <ellipse cx="743.918" cy="807.646" rx="26.677" ry="28.302" style="fill:white;"/>
        </g>
        <g transform="matrix(1,0,0,0.704787,4.74383,404.496)">
            <ellipse cx="594.808" cy="805.011" rx="34.25" ry="24.557" style="fill:white;"/>
        </g>
        <g transform="matrix(1,0,0,0.704787,4.74383,404.496)">
            <ellipse cx="650.308" cy="717.32" rx="26.302" ry="51.987" style="fill:white;"/>
        </g>
        <g transform="matrix(1,0,0,0.704787,4.74383,404.496)">
            <ellipse cx="601.105" cy="770.328" rx="23.365" ry="23.656" style="fill:white;"/>
        </g>
        <g transform="matrix(1,0,0,0.704787,4.74383,404.496)">
            <ellipse cx="630.92" cy="741.763" rx="34.602" ry="36.43" style="fill:white;"/>
        </g>
        <g transform="matrix(1,0,0,0.704787,4.74383,404.496)">
            <ellipse cx="622.855" cy="794.854" rx="12.479" ry="29.724" style="fill:white;"/>
        </g>
        <g transform="matrix(1,0,0,0.704787,4.74383,404.496)">
            <ellipse cx="864.733" cy="619.591" rx="158.805" ry="37.034" style="fill:white;"/>
        </g>
        <g transform="matrix(1,0,0,0.704787,4.74383,404.496)">
            <ellipse cx="736.496" cy="668.347" rx="32.885" ry="26.07" style="fill:white;"/>
        </g>
        <g transform="matrix(1,0,0,0.704787,4.74383,404.496)">
            <ellipse cx="722.022" cy="651.198" rx="31.344" ry="23.708" style="fill:white;"/>
        </g>
        <g transform="matrix(1,0,0,0.704787,4.74383,404.496)">
            <ellipse cx="998.217" cy="640.906" rx="32.419" ry="25.776" style="fill:white;"/>
        </g>
        <g transform="matrix(1.09374,0,0,1.10657,-203.585,56.4044)">
            <path d="M2433.78,812.378C2433.78,795.908 2414.58,782.537 2390.94,782.537L2035.97,782.537C2012.33,782.537 1993.14,795.908 1993.14,812.378L1993.14,872.06C1993.14,888.53 2012.33,901.901 2035.97,901.901L2390.94,901.901C2414.58,901.901 2433.78,888.53 2433.78,872.06L2433.78,812.378Z" style="fill:white;"/>
        </g>
        <g transform="matrix(1,0,0,0.704787,4.74383,404.496)">
            <ellipse cx="1973.67" cy="829.188" rx="20.172" ry="51.839" style="fill:white;"/>
        </g>
        <g transform="matrix(1,0,0,0.704787,4.74383,404.496)">
            <ellipse cx="2461.82" cy="831.602" rx="29.492" ry="43.164" style="fill:white;"/>
        </g>
        <g transform="matrix(0.941385,0,0,0.668832,144.119,420.422)">
            <rect x="2567.94" y="614.656" width="151.589" height="443.906" style="fill:white;"/>
        </g>
        <g transform="matrix(1,0,0,0.704787,4.74383,404.496)">
            <path d="M2580.2,632.814C2580.2,627.383 2575.79,622.974 2570.36,622.974L2550.68,622.974C2545.25,622.974 2540.84,627.383 2540.84,632.814L2540.84,938.067C2540.84,943.497 2545.25,947.906 2550.68,947.906L2570.36,947.906C2575.79,947.906 2580.2,943.497 2580.2,938.067L2580.2,632.814Z" style="fill:white;"/>
        </g>
        <g transform="matrix(1,0,0,0.704787,4.74383,404.496)">
            <path d="M2678.66,588.867C2678.66,586.193 2676.49,584.021 2673.82,584.021L2581.51,584.021C2578.83,584.021 2576.66,586.193 2576.66,588.867L2576.66,598.56C2576.66,601.235 2578.83,603.406 2581.51,603.406L2673.82,603.406C2676.49,603.406 2678.66,601.235 2678.66,598.56L2678.66,588.867Z" style="fill:white;"/>
        </g>
        <g transform="matrix(1,0,0,0.704787,4.74383,404.496)">
            <path d="M2718.02,640.33C2718.02,636.356 2714.8,633.13 2710.82,633.13L2696.42,633.13C2692.45,633.13 2689.22,636.356 2689.22,640.33L2689.22,1164.51C2689.22,1168.48 2692.45,1171.71 2696.42,1171.71L2710.82,1171.71C2714.8,1171.71 2718.02,1168.48 2718.02,1164.51L2718.02,640.33Z" style="fill:white;"/>
        </g>
        <g transform="matrix(1,0,0,0.704787,4.74383,404.496)">
            <path d="M2561.5,925.197C2561.5,922.996 2559.71,921.208 2557.51,921.208L2549.54,921.208C2547.34,921.208 2545.55,922.996 2545.55,925.197L2545.55,989.658C2545.55,991.859 2547.34,993.646 2549.54,993.646L2557.51,993.646C2559.71,993.646 2561.5,991.859 2561.5,989.658L2561.5,925.197Z" style="fill:white;"/>
        </g>
        <g transform="matrix(1,0,0,0.704787,4.74383,404.496)">
            <path d="M2686.1,602.642C2686.1,598.838 2683.01,595.75 2679.2,595.75L2588.66,595.75C2584.86,595.75 2581.77,598.838 2581.77,602.642L2581.77,616.426C2581.77,620.23 2584.86,623.318 2588.66,623.318L2679.2,623.318C2683.01,623.318 2686.1,620.23 2686.1,616.426L2686.1,602.642Z" style="fill:white;"/>
        </g>
        <g transform="matrix(1,0,0,0.704787,4.74383,404.496)">
            <path d="M3121.1,1050.46C3121.1,1037.18 3110.32,1026.4 3097.04,1026.4L2691.88,1026.4C2678.6,1026.4 2667.81,1037.18 2667.81,1050.46L2667.81,1098.58C2667.81,1111.86 2678.6,1122.64 2691.88,1122.64L3097.04,1122.64C3110.32,1122.64 3121.1,1111.86 3121.1,1098.58L3121.1,1050.46Z" style="fill:white;"/>
        </g>
        <g transform="matrix(1.2467,0,0,0.704787,-653.541,404.496)">
            <path d="M2755.6,956.945C2755.6,941.936 2745.82,929.75 2733.78,929.75L2690.15,929.75C2678.11,929.75 2668.34,941.936 2668.34,956.945L2668.34,1057.84C2668.34,1072.85 2678.11,1085.04 2690.15,1085.04L2733.78,1085.04C2745.82,1085.04 2755.6,1072.85 2755.6,1057.84L2755.6,956.945Z" style="fill:white;"/>
        </g>
        <g transform="matrix(1,0,0,1.00489,4.74383,77.7983)">
            <ellipse cx="2635.03" cy="1050.94" rx="70.302" ry="37.68" style="fill:white;"/>
        </g>
        <g transform="matrix(1,0,0,0.704787,4.74383,404.496)">
            <ellipse cx="2641.6" cy="1060" rx="44.174" ry="89.466" style="fill:white;"/>
        </g>
        <g transform="matrix(4.51719,0,0,1.25553,-9316.02,-199.501)">
            <ellipse cx="2695.29" cy="1129.26" rx="42.87" ry="32.563" style="fill:white;"/>
        </g>
        <g transform="matrix(1,0,0,0.704787,4.74383,404.496)">
            <ellipse cx="2856.43" cy="1207.77" rx="100.492" ry="18.779" style="fill:white;"/>
        </g>
        <g transform="matrix(1,0,0,0.704787,4.74383,404.496)">
            <ellipse cx="3046.09" cy="1134" rx="45.688" ry="20.779" style="fill:white;"/>
        </g>
        <g transform="matrix(1.23658,0,0,0.890127,-734.672,248.468)">
            <path d="M3164.95,702.378C3164.95,664.731 3133.73,634.167 3095.28,634.167C3056.83,634.167 3025.62,664.731 3025.62,702.378L3025.62,943.133C3025.62,980.78 3056.83,1011.34 3095.28,1011.34C3133.73,1011.34 3164.95,980.78 3164.95,943.133L3164.95,702.378Z" style="fill:white;"/>
        </g>
        <g transform="matrix(1,0,0,0.704787,4.74383,404.496)">
            <ellipse cx="3014.42" cy="982.427" rx="28.534" ry="53.323" style="fill:white;"/>
        </g>
        <g transform="matrix(1.62628,0,0,1.25367,-1838.5,-188.2)">
            <ellipse cx="2976.71" cy="1048.96" rx="33.552" ry="30.857" style="fill:white;"/>
        </g>
        <g transform="matrix(1.7907,0,0,1.16315,-2472.59,-79.5634)">
            <ellipse cx="3126.8" cy="1050.12" rx="16.922" ry="24.758" style="fill:white;"/>
        </g>
        <g transform="matrix(1.10279,0,0,0.812071,-267.044,286.356)">
            <ellipse cx="2675.11" cy="1128.44" rx="31.06" ry="27.253" style="fill:white;"/>
        </g>
        <g transform="matrix(1.05793,0,0,0.892645,-199.829,279.169)">
            <path d="M3726.79,669.748C3726.79,629.246 3687.43,596.365 3638.94,596.365L3348.58,596.365C3300.1,596.365 3260.73,629.246 3260.73,669.748C3260.73,710.249 3300.1,743.13 3348.58,743.13L3638.94,743.13C3687.43,743.13 3726.79,710.249 3726.79,669.748Z" style="fill:white;"/>
        </g>
        <g transform="matrix(1.16236,0,0,0.79362,-546.504,314.165)">
            <path d="M3428.13,541.849C3428.13,495.428 3391.62,457.74 3346.64,457.74C3301.67,457.74 3265.16,495.428 3265.16,541.849L3265.16,932.76C3265.16,979.182 3301.67,1016.87 3346.64,1016.87C3391.62,1016.87 3428.13,979.182 3428.13,932.76L3428.13,541.849Z" style="fill:white;"/>
        </g>
        <g transform="matrix(1.14378,0,0,0.754381,-575.172,336.598)">
            <ellipse cx="3762.2" cy="1093.97" rx="93.06" ry="91.115" style="fill:white;"/>
        </g>
        <g transform="matrix(1.0167,0,0,0.844068,-39.2824,251.926)">
            <path d="M3740.91,1120.18C3740.91,1079.44 3701.95,1046.37 3653.95,1046.37L3469.89,1046.37C3421.9,1046.37 3382.94,1079.44 3382.94,1120.18C3382.94,1160.92 3421.9,1194 3469.89,1194L3653.95,1194C3701.95,1194 3740.91,1160.92 3740.91,1120.18Z" style="fill:white;"/>
        </g>
        <g transform="matrix(1,0,0,0.704787,4.74383,404.496)">
            <ellipse cx="3592.56" cy="1206.11" rx="78.333" ry="19.74" style="fill:white;"/>
        </g>
        <g transform="matrix(0.598824,0.56445,-0.960814,0.506324,2377.36,-1302.03)">
            <path d="M3490.45,1007.84C3490.45,986.971 3470.12,970.03 3445.09,970.03L3314.32,970.03C3289.29,970.03 3268.97,986.971 3268.97,1007.84L3268.97,1083.45C3268.97,1104.32 3289.29,1121.26 3314.32,1121.26L3445.09,1121.26C3470.12,1121.26 3490.45,1104.32 3490.45,1083.45L3490.45,1007.84Z" style="fill:white;"/>
        </g>
        <g transform="matrix(1.51398,0,0,1.42503,-1695.05,-337.196)">
            <ellipse cx="3289.81" cy="1011.49" rx="17.328" ry="18.286" style="fill:white;"/>
        </g>
        <g transform="matrix(1,0,0,0.704787,4.74383,404.496)">
            <ellipse cx="3511.41" cy="1036.51" rx="33.349" ry="12.711" style="fill:white;"/>
        </g>
        <g transform="matrix(1,0,0,0.704787,4.74383,404.496)">
            <ellipse cx="3410.19" cy="1161.62" rx="25.021" ry="23.747" style="fill:white;"/>
        </g>
        <g transform="matrix(1,0,0,0.704787,4.74383,404.496)">
            <ellipse cx="3318" cy="1071.54" rx="24.849" ry="41.036" style="fill:white;"/>
        </g>
        <g transform="matrix(1.21927,0,0,0.800325,-874.176,349.761)">
            <ellipse cx="3967.06" cy="491.496" rx="76.484" ry="81.419" style="fill:white;"/>
        </g>
        <g transform="matrix(1.4441,0,0,0.747702,-1770.3,362.28)">
            <path d="M4032.73,698.7C4032.73,651.36 4004.49,612.925 3969.72,612.925C3934.94,612.925 3906.7,651.36 3906.7,698.7L3906.7,1128.46C3906.7,1175.8 3934.94,1214.24 3969.72,1214.24C4004.49,1214.24 4032.73,1175.8 4032.73,1128.46L4032.73,698.7Z" style="fill:white;"/>
        </g>
        <g transform="matrix(1.22799,0,0,0.760828,-970.931,341.536)">
            <path d="M4300.73,526.241C4300.73,479.191 4267.16,440.993 4225.8,440.993C4184.44,440.993 4150.86,479.191 4150.86,526.241L4150.86,1038.21C4150.86,1085.26 4184.44,1123.46 4225.8,1123.46C4267.16,1123.46 4300.73,1085.26 4300.73,1038.21L4300.73,526.241Z" style="fill:white;"/>
        </g>
        <g transform="matrix(1.15573,0,0,0.964399,-646.357,106.445)">
            <ellipse cx="4304.88" cy="1137.29" rx="112.742" ry="67.021" style="fill:white;"/>
        </g>
        <g transform="matrix(1,0,0,0.704787,4.74383,404.496)">
            <ellipse cx="4196.53" cy="1124.2" rx="31.927" ry="32.419" style="fill:white;"/>
        </g>
        <g transform="matrix(1,0,0,0.704787,4.74383,404.496)">
            <ellipse cx="4307.24" cy="1035.14" rx="12.773" ry="31.664" style="fill:white;"/>
        </g>
        <g transform="matrix(1,0,0,0.704787,4.74383,404.496)">
            <ellipse cx="4302.31" cy="1010.91" rx="6.734" ry="30.451" style="fill:white;"/>
        </g>
        <g transform="matrix(1,0,0,0.704787,4.74383,404.496)">
            <ellipse cx="1141.51" cy="1025.26" rx="23.508" ry="15.437" style="fill:white;"/>
        </g>
        <g transform="matrix(1,0,0,0.704787,1.08758,406.46)">
            <ellipse cx="1012.44" cy="968.005" rx="17.125" ry="11.055" style="fill:white;"/>
        </g>
        <g transform="matrix(1,0,0,0.704787,4.74383,404.496)">
            <ellipse cx="2448.07" cy="795.354" rx="20.143" ry="19.357" style="fill:white;"/>
        </g>
        <g transform="matrix(1.08375,0,0,0.978914,-210.643,235.95)">
            <ellipse cx="2580.1" cy="609.521" rx="8.186" ry="5.329" style="fill:white;"/>
        </g>
        <g transform="matrix(1.07743,0,0,1.15718,-197.101,-84.8271)">
            <ellipse cx="2596.84" cy="1080.62" rx="10.052" ry="6.248" style="fill:white;"/>
        </g>
        <g transform="matrix(1,0,0,0.704787,4.74383,404.496)">
            <ellipse cx="2941.62" cy="1024.67" rx="12.061" ry="4.011" style="fill:white;"/>
        </g>
        <g transform="matrix(1,0,0,0.704787,4.74383,404.496)">
            <ellipse cx="2701.8" cy="631.874" rx="8.497" ry="6.482" style="fill:white;"/>
        </g>
        <g transform="matrix(1,0,0,0.704787,4.74383,404.496)">
            <ellipse cx="2556.61" cy="972.145" rx="7.004" ry="36.689" style="fill:white;"/>
        </g>
        <g transform="matrix(1,0,0,0.704787,4.74383,404.496)">
            <ellipse cx="2544.43" cy="948.398" rx="10.929" ry="6.444" style="fill:white;"/>
        </g>
        <g transform="matrix(1,0,0,0.704787,4.74383,404.496)">
            <ellipse cx="3046.48" cy="1155.49" rx="6.488" ry="2.563" style="fill:white;"/>
        </g>
        <g transform="matrix(1,0,0,0.704787,4.74383,404.496)">
            <ellipse cx="3297.1" cy="1058.58" rx="11.402" ry="10.27" style="fill:white;"/>
        </g>
        <g transform="matrix(1,0,0,0.704787,4.74383,404.496)">
            <ellipse cx="3336.47" cy="1115.66" rx="16.018" ry="13.443" style="fill:white;"/>
        </g>
        <g transform="matrix(1,0,0,0.704787,4.74383,404.496)">
            <ellipse cx="3423.92" cy="464.679" rx="11.249" ry="6.444" style="fill:white;"/>
        </g>
        <g transform="matrix(1,0,0,0.704787,4.74383,404.496)">
            <ellipse cx="4166.55" cy="1112.69" rx="15.718" ry="16.633" style="fill:white;"/>
        </g>
        <g transform="matrix(1.20469,0,0,1.21728,-898.93,-208.479)">
            <ellipse cx="4386.82" cy="1205.26" rx="27.969" ry="9.199" style="fill:white;"/>
        </g>
        <g transform="matrix(1,0,0,0.704787,4.74383,404.496)">
            <ellipse cx="581.89" cy="783.25" rx="9.738" ry="13.656" style="fill:white;"/>
        </g>
        <g transform="matrix(1.43117,0,0,1.26393,-422.96,-142.907)">
            <ellipse cx="1004.61" cy="966.715" rx="12.656" ry="12.293" style="fill:white;"/>
        </g>
        <g transform="matrix(1.05741,0,0,1.64515,-40.786,-325.429)">
            <ellipse cx="809.221" cy="774.311" rx="24.267" ry="5.165" style="fill:white;"/>
        </g>
        <g transform="matrix(1,0,0,0.704787,6.77352,405.393)">
            <rect x="2868.43" y="1024.95" width="26.055" height="8.778" style="fill:black;"/>
        </g>
        <g transform="matrix(2.69163,0,0,2.84846,-4704.72,-1797.03)">
            <ellipse cx="2781.77" cy="1027.71" rx="10.067" ry="3.766" style="fill:white;"/>
        </g>
        <g transform="matrix(1,0,0,0.704787,4.74383,404.496)">
            <ellipse cx="861.239" cy="1216.24" rx="50.093" ry="11.844" style="fill:white;"/>
        </g>
        <g transform="matrix(1,0,0,0.704787,4.74383,404.496)">
            <ellipse cx="565.479" cy="818.974" rx="8.272" ry="15.031" style="fill:white;"/>
        </g>
        <g transform="matrix(2.33915,-0.956666,0.501905,0.609586,-1260.8,1153.97)">
            <ellipse cx="719.916" cy="604.679" rx="7.571" ry="5.435" style="fill:black;"/>
        </g>
    </g>
    <g id="Layer1" transform="matrix(1,0,0,1,52.664,116.094)">
        <ellipse cx="1527.57" cy="728.977" rx="328.195" ry="317.059" style="fill:rgb(5,174,238);"/>
    </g>
    <g transform="matrix(0.1,0,0,-0.1,0,1700)">
        <path d="M32545,16029C32421,16013 32306,15988 32185,15952C32133,15936 31947,15858 31890,15827C31506,15621 31198,15284 31031,14885C31019,14858 31004,14824 30997,14810L30984,14785L29300,14780C27616,14774 27615,14774 27497,14752C27124,14682 26880,14603 26557,14445C26254,14298 25983,14119 25717,13891C25669,13849 25360,13532 25032,13185C24704,12839 24356,12472 24259,12370C24162,12268 23913,12005 23705,11785C23497,11565 23290,11347 23245,11300C23201,11253 22922,10959 22625,10645C22329,10332 22025,10013 21950,9938L21814,9800L21130,9800C20410,9800 20338,9797 20171,9754C19896,9684 19646,9477 19515,9209C19487,9153 19486,9152 19436,9146C19370,9138 19126,9138 19068,9146L19023,9152L19017,9314C19011,9501 18995,9572 18919,9767C18808,10048 18625,10363 18424,10615C18315,10751 18037,11031 17910,11131C17414,11523 16908,11743 16279,11842C16152,11862 16097,11864 15810,11864C15462,11864 15380,11857 15126,11804C14711,11716 14312,11550 13969,11321C13751,11176 13615,11065 13439,10890C13004,10456 12713,9946 12561,9354C12483,9048 12478,9008 12473,8597C12467,8194 12473,8117 12520,7880C12677,7097 13088,6421 13715,5913C13817,5831 14086,5651 14213,5581C14571,5384 15025,5243 15445,5199C15587,5184 16034,5184 16170,5199C16653,5251 17120,5410 17544,5665C17940,5904 18314,6259 18580,6650C18762,6919 18935,7277 18991,7503C19004,7558 19013,7635 19017,7737L19023,7888L19178,7895C19264,7899 19437,7899 19564,7895L19794,7888L19855,7845C19967,7766 20099,7709 20260,7673C20328,7658 20485,7656 22055,7653C23275,7650 23803,7652 23873,7660C24066,7682 24217,7736 24365,7835L24452,7894L24818,7894C25020,7895 25197,7892 25213,7887C25240,7880 25240,7879 25240,7796C25240,7531 25317,7126 25424,6825C25495,6627 25650,6322 25778,6130C25925,5910 26034,5775 26215,5594C26769,5037 27479,4698 28230,4629C28360,4618 28785,4622 28920,4636L28975,4642L29126,4489C29303,4308 29363,4245 29912,3665C30412,3136 30520,3039 30830,2836C30994,2728 31066,2686 31230,2605C31563,2439 31869,2338 32220,2281C32388,2253 32595,2250 34060,2250L35580,2250L35582,1623L35585,995L39345,995L39350,2797C39353,3788 39358,4601 39361,4605C39365,4608 39398,4606 39436,4599C39528,4583 39733,4593 39830,4619C40049,4677 40182,4750 40320,4889C40499,5069 40587,5277 40610,5572C40615,5640 40620,6187 40620,6791L40620,7887L40735,7894C40798,7898 40902,7898 40965,7894L41080,7887L41080,7486C41080,7265 41085,7020 41091,6941C41150,6115 41595,5386 42306,4955C42577,4790 42871,4683 43190,4634C43353,4609 43664,4608 43778,4633C44249,4734 44589,5111 44625,5571C44641,5764 44577,6002 44464,6171C44284,6443 43999,6608 43650,6645C43488,6662 43393,6699 43317,6774C43270,6822 43220,6898 43220,6924C43220,6948 43295,6995 43695,7223C43780,7271 44239,7537 44330,7590C44366,7611 44530,7706 44695,7801C44860,7896 45137,8055 45310,8156C45483,8256 45648,8351 45676,8366C45861,8470 45920,8506 45920,8515C45920,8521 45842,8570 45747,8624C45509,8761 44938,9091 44490,9350C44284,9469 43976,9647 43805,9745C43398,9979 43271,10054 43221,10090L43181,10120L43177,11207C43174,12290 43174,12295 43152,12393C43070,12752 42872,13017 42576,13160C42418,13237 42337,13255 42145,13255C42008,13255 41972,13252 41896,13231C41690,13177 41554,13098 41405,12946C41247,12785 41159,12622 41107,12395C41086,12306 41086,12285 41083,10729L41079,9153L41033,9146C40974,9138 40726,9138 40666,9146L40620,9153L40620,9614C40620,9867 40615,10134 40610,10206C40583,10561 40453,10822 40195,11043C40022,11190 40025,11235 40217,11394C40398,11543 40515,11723 40576,11946C40601,12034 40604,12062 40604,12205C40604,12348 40601,12376 40576,12465C40491,12779 40256,13048 39967,13164C39692,13274 39339,13245 39081,13093C38674,12852 38489,12411 38600,11943C38658,11696 38768,11535 38993,11363C39106,11277 39133,11241 39126,11191C39120,11150 39082,11108 38984,11034C38831,10918 38699,10751 38639,10596C38567,10409 38567,10410 38563,9748L38559,9151L38497,9145C38411,9136 34513,9143 34504,9152C34490,9166 34532,9212 34578,9233C34625,9255 34628,9255 35625,9261C36704,9267 36655,9265 36822,9320C37107,9416 37385,9697 37486,9992C37598,10322 37536,10698 37323,10978C37206,11132 37041,11254 36876,11311C36690,11375 36741,11373 35630,11379L34615,11385L34573,11407C34478,11458 34470,11493 34470,11865C34470,12030 34465,12210 34460,12264C34439,12481 34373,12674 34263,12837L34199,12933L34288,13064C34502,13378 34604,13658 34632,14013C34670,14490 34534,14942 34236,15325C34173,15405 34053,15527 33955,15610C33777,15761 33534,15891 33305,15960C33252,15976 33220,15984 33130,16005C32994,16036 32689,16049 32545,16029ZM30996,13523C31000,13513 31023,13458 31048,13400C31140,13189 31270,12999 31440,12830C31652,12617 31891,12470 32200,12362C32247,12345 32293,12329 32303,12325C32319,12318 32320,12233 32320,10735L32320,9153L32274,9146C32214,9138 32046,9138 31987,9146L31942,9152L31937,9749C31932,10390 31929,10421 31875,10579C31783,10849 31540,11113 31286,11219C31138,11281 31061,11295 30885,11294C30715,11293 30644,11281 30510,11227C30159,11085 29900,10745 29850,10360C29845,10319 29840,10030 29840,9719L29840,9153L29794,9146C29733,9138 27427,9138 27366,9146L27320,9153L27320,9704C27320,10012 27315,10295 27310,10345C27271,10684 27103,10956 26816,11142C26638,11256 26459,11305 26245,11297C25981,11287 25765,11197 25576,11020C25398,10853 25285,10632 25251,10386C25244,10338 25240,10089 25240,9735C25240,9287 25237,9159 25228,9153C25211,9142 24916,9136 24826,9145L24753,9151L24726,9208C24606,9453 24384,9648 24126,9736C24018,9773 23898,9792 23731,9799L23576,9805L23636,9875C23692,9940 23892,10153 24530,10825C24666,10968 25030,11353 25340,11680C25650,12007 26014,12392 26150,12535C26285,12678 26461,12864 26541,12948C26694,13111 26782,13181 26957,13280C27189,13412 27420,13490 27674,13525C27743,13535 28158,13538 29378,13539C30906,13540 30991,13539 30996,13523ZM33540,13109C33710,13082 33868,13000 33994,12874C34121,12747 34199,12612 34248,12430L34274,12335L34278,11763L34281,11190L35443,11190C36692,11189 36679,11190 36822,11137C37060,11050 37263,10816 37331,10551C37360,10437 37366,10284 37345,10175C37287,9863 37038,9584 36725,9479L36655,9455L35467,9452L34279,9449L34283,8632C34286,7832 34287,7813 34308,7718C34427,7196 34778,6789 35253,6621C35551,6516 35953,6514 36265,6616C36426,6669 36550,6742 36710,6880C36927,7067 37111,7141 37355,7141C37492,7140 37591,7117 37715,7056C37914,6958 38070,6803 38151,6624C38205,6505 38223,6404 38217,6245C38211,6087 38194,6012 38133,5890C38064,5751 37790,5502 37484,5300C36959,4955 36378,4794 35725,4813C34824,4840 34027,5171 33430,5770C32998,6201 32702,6754 32581,7356C32511,7704 32515,7540 32515,10115C32515,12718 32508,12479 32589,12645C32701,12872 32953,13056 33218,13104C33312,13121 33452,13123 33540,13109ZM42270,13069C42605,13015 42865,12760 42967,12388C42983,12329 42985,12134 42990,9635L42995,6945L43022,6872C43060,6766 43105,6697 43186,6620C43301,6511 43431,6461 43600,6460C43756,6459 43944,6400 44076,6310C44205,6221 44324,6077 44379,5945C44579,5466 44287,4940 43752,4814C43657,4791 43312,4800 43150,4829C42935,4867 42733,4936 42541,5037C41847,5400 41389,6051 41288,6815C41278,6896 41275,7441 41275,9620C41275,12234 41276,12327 41294,12394C41373,12687 41582,12927 41843,13025C41974,13074 42137,13091 42270,13069ZM39814,13025C40089,12949 40324,12706 40401,12415C40417,12353 40422,12306 40422,12205C40422,12104 40417,12057 40401,11995C40323,11702 40090,11462 39808,11383C39711,11356 39502,11359 39385,11389C39155,11447 38964,11585 38857,11771C38786,11893 38745,12084 38753,12255C38760,12390 38777,12459 38834,12575C38951,12812 39177,12982 39445,13036C39533,13053 39732,13047 39814,13025ZM16115,11670C16261,11654 16357,11639 16480,11611C16505,11605 16553,11595 16587,11588C16621,11581 16652,11572 16656,11568C16660,11563 16676,11560 16691,11560C16706,11560 16722,11556 16725,11550C16728,11545 16741,11540 16754,11540C16766,11540 16780,11536 16785,11532C16791,11528 16820,11516 16850,11506C16880,11496 16915,11484 16928,11479C16940,11474 16961,11466 16975,11460C17031,11437 17121,11400 17150,11386C17164,11380 17177,11373 17180,11369C17183,11366 17203,11356 17225,11346C17247,11337 17273,11324 17284,11319C17344,11285 17373,11268 17409,11246C17431,11231 17454,11220 17460,11220C17465,11220 17470,11216 17470,11210C17470,11205 17475,11200 17480,11200C17490,11200 17568,11152 17580,11140C17583,11137 17617,11112 17655,11085C17694,11058 17739,11025 17756,11011C17865,10921 17890,10899 17944,10850C17994,10804 18061,10736 18165,10626C18238,10549 18357,10394 18443,10265C18469,10227 18493,10190 18497,10185C18513,10164 18551,10094 18557,10078C18560,10068 18566,10060 18571,10060C18576,10060 18580,10051 18580,10041C18580,10030 18583,10020 18588,10018C18598,10014 18670,9868 18670,9852C18670,9846 18673,9840 18678,9840C18685,9840 18694,9821 18727,9735C18735,9713 18747,9684 18753,9670C18779,9605 18794,9562 18813,9504C18828,9457 18830,9361 18830,8531C18830,7569 18830,7563 18789,7488C18784,7478 18780,7461 18780,7450C18780,7439 18776,7430 18770,7430C18765,7430 18760,7420 18760,7407C18760,7394 18756,7380 18751,7375C18747,7369 18734,7343 18724,7315C18677,7185 18492,6850 18387,6705C18261,6530 18202,6461 18035,6295C17913,6172 17884,6146 17795,6075C17768,6053 17743,6032 17740,6029C17737,6026 17704,6002 17665,5975C17627,5948 17594,5922 17592,5918C17590,5913 17584,5910 17579,5910C17574,5910 17548,5894 17521,5875C17495,5856 17468,5840 17461,5840C17455,5840 17450,5836 17450,5832C17450,5828 17438,5819 17423,5813C17407,5806 17373,5787 17345,5771C17294,5740 17076,5630 17065,5630C17062,5630 17038,5621 17012,5609C16944,5579 16931,5574 16870,5554C16840,5544 16811,5532 16806,5528C16800,5524 16788,5520 16778,5520C16768,5520 16752,5516 16742,5511C16712,5496 16656,5480 16607,5474C16581,5470 16557,5463 16554,5459C16551,5454 16534,5450 16516,5450C16499,5450 16480,5446 16474,5441C16469,5436 16447,5430 16425,5426C16403,5423 16358,5416 16325,5411C16167,5384 16064,5378 15805,5378C15651,5378 15485,5383 15435,5390C15386,5396 15325,5404 15300,5406C15275,5409 15246,5415 15235,5420C15224,5425 15199,5431 15180,5434C15161,5436 15125,5444 15100,5450C15075,5456 15030,5466 15000,5472C14970,5477 14941,5486 14936,5491C14930,5496 14916,5500 14903,5500C14890,5500 14872,5504 14862,5509C14836,5522 14800,5536 14740,5555C14710,5564 14665,5581 14640,5592C14615,5603 14586,5616 14575,5621C14489,5655 14434,5680 14385,5708C14374,5714 14352,5725 14335,5733C14268,5764 13992,5937 13963,5965C13955,5973 13946,5980 13942,5980C13938,5980 13923,5990 13908,6003C13893,6016 13869,6035 13855,6046C13792,6091 13524,6334 13518,6350C13516,6355 13490,6385 13460,6417C13390,6492 13325,6570 13275,6640C13253,6670 13227,6704 13218,6714C13208,6725 13198,6742 13194,6752C13191,6762 13184,6770 13179,6770C13174,6770 13170,6774 13170,6780C13170,6785 13150,6821 13125,6859C13100,6897 13080,6933 13080,6939C13080,6945 13077,6950 13073,6950C13068,6950 13060,6960 13054,6973C13027,7028 12964,7145 12959,7150C12956,7153 12946,7178 12936,7205C12926,7233 12913,7259 12909,7265C12904,7270 12900,7282 12900,7292C12900,7302 12896,7310 12890,7310C12885,7310 12880,7318 12880,7328C12880,7338 12876,7350 12872,7355C12868,7361 12856,7392 12845,7425C12835,7458 12823,7490 12820,7495C12816,7501 12808,7525 12801,7550C12794,7575 12784,7604 12779,7615C12772,7633 12759,7687 12744,7760C12741,7774 12735,7794 12730,7805C12725,7816 12719,7841 12715,7860C12712,7879 12705,7918 12700,7945C12669,8103 12667,8141 12667,8530C12667,8797 12671,8955 12679,8995C12685,9028 12693,9079 12696,9108C12700,9137 12706,9163 12711,9166C12716,9169 12720,9186 12720,9205C12720,9224 12725,9242 12730,9245C12736,9248 12740,9264 12740,9281C12740,9297 12744,9318 12750,9328C12758,9343 12772,9396 12787,9473C12790,9488 12796,9500 12801,9500C12806,9500 12810,9514 12810,9530C12810,9547 12815,9560 12820,9560C12826,9560 12830,9567 12830,9576C12830,9598 12863,9694 12873,9698C12877,9700 12880,9710 12880,9720C12880,9730 12885,9742 12890,9745C12896,9748 12900,9760 12900,9771C12900,9781 12905,9790 12910,9790C12916,9790 12920,9797 12920,9804C12920,9821 13042,10063 13083,10127C13098,10151 13110,10173 13110,10178C13110,10183 13119,10195 13130,10205C13141,10215 13150,10227 13150,10232C13150,10237 13155,10246 13160,10253C13166,10260 13187,10290 13207,10320C13227,10350 13247,10379 13252,10385C13542,10753 13772,10970 14086,11172C14236,11270 14411,11364 14540,11419C14570,11432 14611,11449 14630,11457C14649,11465 14672,11475 14681,11480C14690,11485 14714,11492 14734,11495C14754,11499 14773,11506 14776,11511C14779,11516 14792,11520 14805,11520C14818,11520 14832,11525 14835,11530C14838,11536 14852,11540 14865,11540C14878,11540 14891,11544 14894,11549C14897,11554 14912,11560 14927,11563C14970,11572 15091,11600 15135,11611C15157,11617 15193,11624 15215,11626C15237,11629 15264,11635 15275,11640C15286,11645 15324,11652 15360,11655C15396,11659 15457,11665 15495,11669C15601,11681 16013,11681 16115,11670ZM26470,11096C26632,11052 26771,10969 26889,10845C26998,10730 27051,10640 27097,10493L27125,10405L27130,9085C27136,7768 27136,7765 27158,7668C27290,7090 27729,6652 28300,6529C28449,6497 28728,6496 28877,6528C29164,6590 29436,6736 29635,6935C29821,7120 29940,7340 30003,7615C30023,7703 30024,7736 30030,9055C30036,10572 30029,10442 30114,10615C30347,11087 30910,11261 31325,10989C31472,10894 31591,10759 31665,10607C31751,10429 31745,10543 31745,9070C31745,7699 31745,7685 31699,7416C31581,6715 31200,6050 30645,5571C30180,5170 29618,4919 29000,4834C28841,4813 28378,4804 28214,4819C27856,4853 27546,4943 27205,5111C26665,5377 26220,5777 25897,6288C25814,6419 25654,6740 25605,6873C25523,7098 25464,7354 25441,7584C25434,7656 25430,8147 25430,9027C25430,10500 25427,10436 25494,10590C25540,10699 25592,10774 25689,10871C25818,10999 25955,11072 26128,11105C26220,11122 26390,11118 26470,11096ZM39842,11028C40098,10944 40306,10715 40391,10423C40431,10283 40431,10260 40428,7825L40425,5475L40402,5390C40339,5154 40188,4969 39975,4865C39844,4801 39734,4776 39580,4776C39427,4776 39354,4793 39211,4862C39118,4907 39096,4922 39011,5009C38877,5143 38825,5239 38774,5438L38750,5534L38752,7954L38755,10375L38787,10470C38834,10608 38880,10680 38995,10795C39107,10907 39196,10964 39333,11011C39449,11051 39508,11059 39645,11056C39739,11053 39782,11047 39842,11028ZM24000,9587C24171,9540 24350,9422 24460,9285C24707,8973 24714,8510 24476,8193C24336,8007 24129,7881 23914,7850C23857,7842 23337,7840 22070,7842L20305,7845L20228,7867C19932,7951 19702,8188 19623,8489C19588,8620 19586,8822 19618,8953C19689,9241 19901,9477 20168,9565C20304,9609 20271,9608 22150,9606C23820,9605 23939,9603 24000,9587ZM29750,7892L29835,7885L29832,7825C29811,7399 29565,7033 29161,6831C29063,6781 28896,6724 28825,6715L28775,6709L28694,6787C28581,6895 27650,7881 27650,7891C27650,7901 29620,7901 29750,7892ZM32323,7883C32327,7881 32330,7858 32330,7832C32330,7750 32360,7520 32391,7365C32459,7022 32543,6773 32684,6490C33204,5451 34192,4785 35422,4645C35501,4635 35567,4626 35570,4623C35573,4621 35575,4366 35575,4057L35575,3495L34015,3498C33014,3500 32425,3505 32370,3511C32133,3540 31854,3638 31631,3771C31448,3881 31403,3921 31084,4257C30316,5068 30300,5085 30316,5099C30321,5103 30379,5142 30445,5185C31140,5643 31650,6377 31844,7201C31890,7394 31921,7623 31933,7840L31935,7885L32010,7891C32085,7897 32308,7891 32323,7883ZM38470,7892L38555,7885L38555,7235C38555,6600 38554,6582 38531,6440C38506,6287 38507,6263 38535,6082C38543,6026 38555,5873 38560,5742C38570,5489 38584,5403 38635,5260C38671,5160 38703,5100 38762,5014C38808,4947 38926,4824 38979,4787C38993,4778 39000,4767 38996,4763C38986,4752 37301,4747 37020,4757L36795,4765L36930,4813C37265,4933 37608,5132 37917,5387C38199,5618 38301,5764 38416,6096C38479,6278 38465,6370 38333,6667C38271,6805 38225,6875 38125,6978C38020,7089 37938,7149 37805,7216C37644,7296 37532,7323 37355,7323C37098,7324 36883,7250 36677,7093C36632,7058 36557,7001 36510,6965C36419,6895 36285,6824 36180,6790C36001,6732 35668,6717 35474,6758C35225,6811 35023,6925 34839,7116C34666,7297 34544,7527 34496,7762C34469,7892 34468,7889 34553,7893C34688,7899 38385,7898 38470,7892Z" style="fill:black;fill-rule:nonzero;"/>
        <g transform="matrix(1,0,0,1,-27.8646,18.5417)">
            <path d="M8460,11280C8031,11242 7617,11125 7239,10934C6641,10632 6157,10175 5811,9586C5588,9207 5448,8788 5383,8310C5368,8197 5366,7978 5363,5945C5360,4442 5362,3667 5369,3589C5400,3254 5530,3017 5790,2826C6056,2630 6427,2575 6748,2684C7021,2777 7260,3001 7364,3263C7438,3449 7450,3577 7450,4190C7450,4481 7454,4649 7461,4674C7467,4696 7485,4726 7501,4741C7552,4788 7592,4788 7806,4736C8163,4650 8358,4626 8705,4626C9030,4626 9255,4653 9562,4731C10009,4843 10439,5057 10811,5351C10940,5452 11199,5712 11305,5845C11604,6220 11818,6645 11933,7095C12095,7727 12083,8318 11894,8937C11787,9288 11550,9726 11295,10043C10878,10562 10277,10965 9649,11148C9485,11196 9257,11244 9095,11265C8949,11284 8603,11292 8460,11280ZM8970,11090C9572,11037 10115,10825 10612,10449C10788,10316 11077,10025 11211,9845C11569,9366 11772,8866 11841,8295C11858,8156 11858,7739 11841,7605C11811,7356 11760,7130 11690,6927C11448,6225 10977,5636 10363,5268C9822,4943 9247,4794 8605,4813C8155,4827 7742,4915 7395,5071C7335,5099 7280,5124 7273,5127C7264,5131 7260,4947 7257,4323C7254,3605 7252,3508 7237,3452C7196,3301 7121,3170 7010,3060C6834,2883 6613,2800 6355,2813C6177,2822 6034,2874 5888,2982C5707,3115 5591,3305 5560,3516C5546,3613 5547,7978 5561,8165C5593,8599 5701,8977 5904,9365C6254,10036 6806,10546 7520,10860C7942,11045 8489,11132 8970,11090Z" style="fill:black;fill-rule:nonzero;"/>
        </g>
        <path d="M8565,9394C8281,9353 8097,9286 7880,9142C7696,9020 7488,8777 7394,8574C7239,8239 7215,7834 7330,7487C7499,6981 7915,6621 8455,6514C8576,6489 8848,6489 8976,6513C9251,6564 9513,6704 9720,6910C10000,7191 10150,7554 10150,7953C10150,8193 10110,8371 10010,8575C9930,8740 9863,8836 9743,8961C9537,9174 9284,9314 9000,9371C8909,9390 8635,9404 8565,9394ZM8835,9200C9042,9180 9244,9107 9417,8988C9523,8916 9673,8764 9743,8659C9902,8418 9969,8185 9957,7900C9944,7564 9824,7293 9581,7049C9365,6832 9125,6717 8832,6690C8561,6665 8302,6724 8064,6865C7743,7055 7519,7384 7465,7744C7410,8117 7498,8454 7725,8737C7844,8886 7976,8989 8165,9081C8300,9147 8434,9186 8566,9199C8694,9211 8713,9211 8835,9200Z" style="fill:black;fill-rule:nonzero;"/>
    </g>
</svg>
